<svg id="SvgjsSvg1001" width="475" height="300" xmlns="http://www.w3.org/2000/svg" version="1.1" xmlns:xlink="http://www.w3.org/1999/xlink" xmlns:svgjs="http://svgjs.com/svgjs"><defs id="SvgjsDefs1002"></defs><rect id="SvgjsRect1008" width="475" height="300" fill="#b1b1b1"></rect><g id="SvgjsG1013" transform="matrix(1,0,0,1,147.36596298217773,126.70199584960938)"><path id="SvgjsPath1014" d="M5.9040000457763675 26.280000686645508L4.577636714131472e-8 26.280000686645508L4.577636714131472e-8 0.7200006866455091L17.352000045776368 0.7200006866455091L17.352000045776368 5.904000686645507L5.9040000457763675 5.904000686645507L5.9040000457763675 11.412000686645507L15.336000045776366 11.412000686645507L15.336000045776366 16.20000068664551L5.9040000457763675 16.20000068664551L5.9040000457763675 26.280000686645508ZM31.824000045776366 7.128000686645507L31.824000045776366 12.312000686645508Q29.736000045776365 12.348000686645507 28.06200004577637 12.996000686645507Q26.388000045776366 13.644000686645509 25.596000045776368 14.940000686645508L25.596000045776368 26.280000686645508L19.836000045776366 26.280000686645508L19.836000045776366 7.380000686645509L25.128000045776368 7.380000686645509L25.128000045776368 11.196000686645508Q26.136000045776367 9.288000686645507 27.666000045776368 8.22600068664551Q29.196000045776366 7.164000686645508 30.924000045776367 7.092000686645509Q31.644000045776366 7.092000686645509 31.824000045776366 7.128000686645507ZM42.94800004577637 26.640000686645507Q40.53600004577637 26.640000686645507 38.64600004577637 25.84800068664551Q36.75600004577637 25.056000686645508 35.46000004577637 23.70600068664551Q34.16400004577637 22.35600068664551 33.498000045776365 20.57400068664551Q32.83200004577637 18.79200068664551 32.83200004577637 16.848000686645506Q32.83200004577637 14.904000686645508 33.498000045776365 13.122000686645508Q34.16400004577637 11.340000686645508 35.46000004577637 9.990000686645509Q36.75600004577637 8.640000686645507 38.64600004577637 7.8300006866455085Q40.53600004577637 7.020000686645506 42.94800004577637 7.020000686645506Q45.36000004577637 7.020000686645506 47.23200004577637 7.8300006866455085Q49.10400004577637 8.640000686645507 50.400000045776366 9.990000686645509Q51.696000045776366 11.340000686645508 52.38000004577637 13.122000686645508Q53.06400004577637 14.904000686645508 53.06400004577637 16.848000686645506Q53.06400004577637 18.79200068664551 52.398000045776364 20.57400068664551Q51.73200004577637 22.35600068664551 50.43600004577637 23.70600068664551Q49.14000004577637 25.056000686645508 47.25000004577637 25.84800068664551Q45.36000004577637 26.640000686645507 42.94800004577637 26.640000686645507ZM38.736000045776365 16.848000686645506Q38.736000045776365 19.08000068664551 39.92400004577637 20.430000686645506Q41.11200004577637 21.780000686645508 42.94800004577637 21.780000686645508Q43.84800004577637 21.780000686645508 44.60400004577637 21.42000068664551Q45.36000004577637 21.06000068664551 45.91800004577637 20.412000686645506Q46.47600004577637 19.76400068664551 46.800000045776365 18.846000686645507Q47.12400004577637 17.928000686645507 47.12400004577637 16.848000686645506Q47.12400004577637 14.616000686645508 45.93600004577637 13.266000686645508Q44.748000045776365 11.916000686645507 42.94800004577637 11.916000686645507Q42.04800004577637 11.916000686645507 41.27400004577637 12.276000686645508Q40.50000004577637 12.636000686645508 39.94200004577637 13.284000686645507Q39.38400004577637 13.932000686645507 39.06000004577637 14.850000686645508Q38.736000045776365 15.768000686645507 38.736000045776365 16.848000686645506ZM74.08800004577637 14.184000686645508L74.08800004577637 26.280000686645508L68.32800004577636 26.280000686645508L68.32800004577636 15.660000686645509Q68.32800004577636 13.788000686645507 67.62600004577637 12.942000686645509Q66.92400004577637 12.096000686645509 65.77200004577637 12.096000686645509Q65.16000004577637 12.096000686645509 64.53000004577636 12.348000686645507Q63.900000045776366 12.600000686645508 63.34200004577637 13.050000686645507Q62.78400004577637 13.500000686645508 62.31600004577636 14.112000686645509Q61.848000045776374 14.724000686645509 61.596000045776364 15.444000686645508L61.596000045776364 26.280000686645508L55.836000045776366 26.280000686645508L55.836000045776366 7.380000686645509L61.02000004577637 7.380000686645509L61.02000004577637 10.548000686645508Q62.06400004577637 8.856000686645508 63.97200004577637 7.938000686645509Q65.88000004577637 7.020000686645506 68.36400004577636 7.020000686645506Q70.20000004577636 7.020000686645506 71.33400004577636 7.686000686645507Q72.46800004577636 8.352000686645507 73.08000004577637 9.414000686645508Q73.69200004577637 10.476000686645508 73.89000004577636 11.736000686645507Q74.08800004577637 12.996000686645507 74.08800004577637 14.184000686645508ZM88.95600004577636 20.70000068664551L90.03600004577636 25.27200068664551Q88.84800004577637 25.776000686645506 87.33600004577637 26.20800068664551Q85.82400004577637 26.640000686645507 84.24000004577637 26.640000686645507Q83.16000004577637 26.640000686645507 82.20600004577636 26.370000686645508Q81.25200004577637 26.100000686645508 80.53200004577637 25.506000686645507Q79.81200004577637 24.91200068664551 79.39800004577637 23.940000686645508Q78.98400004577637 22.968000686645507 78.98400004577637 21.600000686645508L78.98400004577637 11.736000686645507L76.57200004577636 11.736000686645507L76.57200004577636 7.380000686645509L78.98400004577637 7.380000686645509L78.98400004577637 1.3680006866455088L84.74400004577636 1.3680006866455088L84.74400004577636 7.380000686645509L88.59600004577636 7.380000686645509L88.59600004577636 11.736000686645507L84.74400004577636 11.736000686645507L84.74400004577636 19.620000686645508Q84.74400004577636 20.556000686645508 85.23000004577636 20.97000068664551Q85.71600004577637 21.384000686645507 86.43600004577637 21.384000686645507Q87.04800004577636 21.384000686645507 87.73200004577637 21.168000686645506Q88.41600004577637 20.95200068664551 88.95600004577636 20.70000068664551ZM101.30400004577636 26.640000686645507Q98.92800004577637 26.640000686645507 97.03800004577637 25.866000686645506Q95.14800004577637 25.09200068664551 93.83400004577636 23.76000068664551Q92.52000004577637 22.428000686645507 91.83600004577637 20.68200068664551Q91.15200004577636 18.936000686645507 91.15200004577636 17.028000686645505Q91.15200004577636 14.976000686645508 91.83600004577637 13.158000686645508Q92.52000004577637 11.340000686645508 93.81600004577636 9.972000686645508Q95.11200004577637 8.60400068664551 97.00200004577637 7.812000686645508Q98.89200004577637 7.020000686645506 101.30400004577636 7.020000686645506Q103.71600004577637 7.020000686645506 105.58800004577637 7.812000686645508Q107.46000004577637 8.60400068664551 108.75600004577636 9.954000686645507Q110.05200004577637 11.304000686645507 110.71800004577636 13.068000686645508Q111.38400004577636 14.832000686645507 111.38400004577636 16.77600068664551Q111.38400004577636 17.280000686645508 111.34800004577637 17.76600068664551Q111.31200004577637 18.25200068664551 111.24000004577637 18.61200068664551L97.27200004577637 18.61200068664551Q97.41600004577637 20.52000068664551 98.65800004577636 21.51000068664551Q99.90000004577637 22.500000686645507 101.48400004577637 22.500000686645507Q102.74400004577636 22.500000686645507 103.91400004577636 21.88800068664551Q105.08400004577636 21.27600068664551 105.48000004577636 20.232000686645506L110.37600004577637 21.600000686645508Q109.26000004577637 23.832000686645507 106.92000004577636 25.236000686645507Q104.58000004577637 26.640000686645507 101.30400004577636 26.640000686645507ZM97.16400004577636 15.048000686645508L105.30000004577637 15.048000686645508Q105.12000004577637 13.248000686645508 104.00400004577637 12.204000686645507Q102.88800004577637 11.160000686645509 101.23200004577637 11.160000686645509Q99.54000004577637 11.160000686645509 98.44200004577637 12.222000686645508Q97.34400004577637 13.284000686645507 97.16400004577636 15.048000686645508ZM132.22800004577635 14.184000686645508L132.22800004577635 26.280000686645508L126.46800004577636 26.280000686645508L126.46800004577636 15.660000686645509Q126.46800004577636 13.788000686645507 125.76600004577637 12.942000686645509Q125.06400004577637 12.096000686645509 123.91200004577637 12.096000686645509Q123.30000004577637 12.096000686645509 122.67000004577636 12.348000686645507Q122.04000004577637 12.600000686645508 121.48200004577637 13.050000686645507Q120.92400004577637 13.500000686645508 120.45600004577636 14.112000686645509Q119.98800004577637 14.724000686645509 119.73600004577636 15.444000686645508L119.73600004577636 26.280000686645508L113.97600004577637 26.280000686645508L113.97600004577637 7.380000686645509L119.16000004577637 7.380000686645509L119.16000004577637 10.548000686645508Q120.20400004577637 8.856000686645508 122.11200004577637 7.938000686645509Q124.02000004577637 7.020000686645506 126.50400004577637 7.020000686645506Q128.34000004577638 7.020000686645506 129.47400004577636 7.686000686645507Q130.60800004577638 8.352000686645507 131.22000004577637 9.414000686645508Q131.83200004577637 10.476000686645508 132.03000004577638 11.736000686645507Q132.22800004577635 12.996000686645507 132.22800004577635 14.184000686645508ZM143.85600004577637 26.640000686645507Q141.91200004577638 26.640000686645507 140.27400004577638 25.902000686645508Q138.63600004577637 25.164000686645508 137.44800004577635 23.832000686645507Q136.26000004577637 22.500000686645507 135.59400004577637 20.718000686645507Q134.92800004577637 18.936000686645507 134.92800004577637 16.812000686645508Q134.92800004577637 14.760000686645508 135.54000004577637 12.960000686645508Q136.15200004577636 11.160000686645509 137.26800004577638 9.846000686645507Q138.38400004577636 8.532000686645507 139.91400004577636 7.7760006866455065Q141.44400004577636 7.020000686645506 143.28000004577638 7.020000686645506Q145.22400004577636 7.020000686645506 146.84400004577637 7.956000686645506Q148.46400004577637 8.892000686645506 149.32800004577638 10.476000686645508L149.32800004577638 6.866455066756316e-7L155.08800004577637 6.866455066756316e-7L155.08800004577637 19.800000686645507Q155.08800004577637 20.664000686645508 155.41200004577638 21.006000686645507Q155.73600004577636 21.348000686645506 156.56400004577637 21.42000068664551L156.56400004577637 26.280000686645508Q155.66400004577636 26.460000686645508 154.99800004577637 26.51400068664551Q154.33200004577637 26.568000686645508 153.79200004577638 26.568000686645508Q150.76800004577638 26.49600068664551 150.33600004577636 24.15600068664551L150.22800004577635 23.148000686645506Q149.18400004577637 24.91200068664551 147.49200004577636 25.776000686645506Q145.80000004577636 26.640000686645507 143.85600004577637 26.640000686645507ZM145.40400004577637 21.780000686645508Q146.59200004577636 21.780000686645508 147.67200004577637 21.07800068664551Q148.75200004577636 20.376000686645508 149.36400004577638 19.152000686645508L149.36400004577638 15.192000686645509Q148.82400004577636 13.752000686645507 147.61800004577637 12.834000686645508Q146.41200004577638 11.916000686645507 145.11600004577636 11.916000686645507Q144.18000004577635 11.916000686645507 143.40600004577638 12.330000686645509Q142.63200004577638 12.744000686645508 142.05600004577636 13.428000686645507Q141.48000004577636 14.112000686645509 141.17400004577638 15.012000686645507Q140.86800004577637 15.912000686645507 140.86800004577637 16.92000068664551Q140.86800004577637 19.044000686645507 142.12800004577636 20.412000686645506Q143.38800004577638 21.780000686645508 145.40400004577637 21.780000686645508ZM171.25200004577636 26.280000686645508L164.98800004577637 26.280000686645508L174.81600004577638 0.7200006866455091L179.60400004577636 0.7200006866455091L189.39600004577636 26.280000686645508L183.13200004577638 26.280000686645508L181.15200004577636 20.556000686645508L173.19600004577637 20.556000686645508L171.25200004577636 26.280000686645508ZM180.14400004577638 16.488000686645506L177.19200004577635 6.984000686645508L174.13200004577638 16.488000686645506L180.14400004577638 16.488000686645506ZM203.22000004577637 7.128000686645507L203.22000004577637 12.312000686645508Q201.13200004577638 12.348000686645507 199.45800004577637 12.996000686645507Q197.78400004577637 13.644000686645509 196.99200004577636 14.940000686645508L196.99200004577636 26.280000686645508L191.23200004577637 26.280000686645508L191.23200004577637 7.380000686645509L196.52400004577638 7.380000686645509L196.52400004577638 11.196000686645508Q197.53200004577636 9.288000686645507 199.06200004577636 8.22600068664551Q200.59200004577636 7.164000686645508 202.32000004577637 7.092000686645509Q203.04000004577637 7.092000686645509 203.22000004577637 7.128000686645507ZM235.54800004577638 14.184000686645508L235.54800004577638 26.280000686645508L229.78800004577636 26.280000686645508L229.78800004577636 15.660000686645509Q229.78800004577636 13.788000686645507 229.12200004577636 12.942000686645509Q228.45600004577636 12.096000686645509 227.34000004577638 12.096000686645509Q226.18800004577636 12.096000686645509 225.09000004577638 13.032000686645508Q223.99200004577636 13.968000686645508 223.48800004577637 15.444000686645508L223.48800004577637 26.280000686645508L217.72800004577635 26.280000686645508L217.72800004577635 15.660000686645509Q217.72800004577635 13.788000686645507 217.06200004577636 12.942000686645509Q216.39600004577636 12.096000686645509 215.28000004577638 12.096000686645509Q214.12800004577636 12.096000686645509 213.03000004577638 13.014000686645508Q211.93200004577636 13.932000686645507 211.42800004577637 15.444000686645508L211.42800004577637 26.280000686645508L205.66800004577638 26.280000686645508L205.66800004577638 7.380000686645509L210.85200004577638 7.380000686645509L210.85200004577638 10.548000686645508Q211.89600004577636 8.820000686645507 213.69600004577637 7.920000686645508Q215.49600004577636 7.020000686645506 217.87200004577636 7.020000686645506Q219.02400004577638 7.020000686645506 219.92400004577638 7.3080006866455065Q220.82400004577636 7.596000686645507 221.45400004577635 8.100000686645508Q222.08400004577638 8.60400068664551 222.49800004577637 9.270000686645506Q222.91200004577638 9.936000686645507 223.09200004577636 10.692000686645509Q224.13600004577637 8.928000686645507 225.90000004577638 7.974000686645507Q227.66400004577636 7.020000686645506 229.93200004577636 7.020000686645506Q231.73200004577637 7.020000686645506 232.83000004577636 7.686000686645507Q233.92800004577637 8.352000686645507 234.54000004577637 9.414000686645508Q235.15200004577636 10.476000686645508 235.35000004577637 11.736000686645507Q235.54800004577638 12.996000686645507 235.54800004577638 14.184000686645508ZM239.22000004577637 34.056000686645504L239.22000004577637 29.12400068664551Q240.01200004577638 29.376000686645508 240.67800004577637 29.48400068664551Q241.34400004577637 29.59200068664551 241.84800004577636 29.59200068664551Q242.78400004577637 29.59200068664551 243.37800004577636 28.854000686645506Q243.97200004577635 28.116000686645506 244.36800004577637 26.280000686645508L237.20400004577635 7.380000686645509L243.10800004577638 7.380000686645509L247.53600004577638 21.348000686645506L251.31600004577638 7.380000686645509L256.68000004577635 7.380000686645509L249.44400004577636 29.340000686645507Q248.65200004577636 31.716000686645508 246.76200004577638 33.138000686645505Q244.87200004577636 34.56000068664551 242.38800004577638 34.59600068664551Q241.59600004577638 34.59600068664551 240.80400004577638 34.470000686645506Q240.01200004577638 34.34400068664551 239.22000004577637 34.056000686645504Z " fill="#000000"></path></g><g id="SvgjsG1015" transform="matrix(1,0,0,1,17.365962982177734,62)"><path id="color_2" d="M115.07369,103.93415H53.58808V61.06585h61.48561Z" fill="#ffffff"></path><path id="color_1" d="M102.80512,68.28534l5.038,3.12751-.00735-.00131.00735.00131L92.09733,96.72977l-4.99552-3.17711ZM73.92732,93.55266l4.99552,3.17711L94.66861,71.41285l-.00735-.00131.00735.00131-5.038-3.12751ZM65.19257,75.82952a4.04172,4.04172,0,1,0,4.04172,4.04172A4.04171,4.04171,0,0,0,65.19257,75.82952Zm0,12.79462a4.04172,4.04172,0,1,0,4.04172,4.04171A4.0417,4.0417,0,0,0,65.19257,88.62414Z" fill="#000000"></path></g></svg>