<svg id="SvgjsSvg1001" width="475" height="300" xmlns="http://www.w3.org/2000/svg" version="1.1" xmlns:xlink="http://www.w3.org/1999/xlink" xmlns:svgjs="http://svgjs.com/svgjs"><defs id="SvgjsDefs1002"></defs><g id="SvgjsG1013" transform="matrix(1,0,0,1,0,154.35383987426758)"><path id="SvgjsPath1014" d="M115.06400370788575 26.280000686645508L109.16000370788574 26.280000686645508L109.16000370788574 0.7200006866455091L126.51200370788574 0.7200006866455091L126.51200370788574 5.904000686645507L115.06400370788575 5.904000686645507L115.06400370788575 11.412000686645507L124.49600370788573 11.412000686645507L124.49600370788573 16.20000068664551L115.06400370788575 16.20000068664551L115.06400370788575 26.280000686645508ZM140.98400370788573 7.128000686645507L140.98400370788573 12.312000686645508Q138.89600370788574 12.348000686645507 137.22200370788573 12.996000686645507Q135.54800370788575 13.644000686645509 134.75600370788575 14.940000686645508L134.75600370788575 26.280000686645508L128.99600370788573 26.280000686645508L128.99600370788573 7.380000686645509L134.28800370788574 7.380000686645509L134.28800370788574 11.196000686645508Q135.29600370788575 9.288000686645507 136.82600370788575 8.22600068664551Q138.35600370788575 7.164000686645508 140.08400370788576 7.092000686645509Q140.80400370788573 7.092000686645509 140.98400370788573 7.128000686645507ZM152.10800370788576 26.640000686645507Q149.69600370788575 26.640000686645507 147.80600370788574 25.84800068664551Q145.91600370788575 25.056000686645508 144.62000370788576 23.70600068664551Q143.32400370788574 22.35600068664551 142.65800370788574 20.57400068664551Q141.99200370788574 18.79200068664551 141.99200370788574 16.848000686645506Q141.99200370788574 14.904000686645508 142.65800370788574 13.122000686645508Q143.32400370788574 11.340000686645508 144.62000370788576 9.990000686645509Q145.91600370788575 8.640000686645507 147.80600370788574 7.8300006866455085Q149.69600370788575 7.020000686645506 152.10800370788576 7.020000686645506Q154.52000370788573 7.020000686645506 156.39200370788575 7.8300006866455085Q158.26400370788573 8.640000686645507 159.56000370788576 9.990000686645509Q160.85600370788575 11.340000686645508 161.54000370788575 13.122000686645508Q162.22400370788574 14.904000686645508 162.22400370788574 16.848000686645506Q162.22400370788574 18.79200068664551 161.55800370788575 20.57400068664551Q160.89200370788575 22.35600068664551 159.59600370788576 23.70600068664551Q158.30000370788574 25.056000686645508 156.41000370788575 25.84800068664551Q154.52000370788573 26.640000686645507 152.10800370788576 26.640000686645507ZM147.89600370788574 16.848000686645506Q147.89600370788574 19.08000068664551 149.08400370788576 20.430000686645506Q150.27200370788574 21.780000686645508 152.10800370788576 21.780000686645508Q153.00800370788573 21.780000686645508 153.76400370788573 21.42000068664551Q154.52000370788573 21.06000068664551 155.07800370788573 20.412000686645506Q155.63600370788575 19.76400068664551 155.96000370788573 18.846000686645507Q156.28400370788574 17.928000686645507 156.28400370788574 16.848000686645506Q156.28400370788574 14.616000686645508 155.09600370788576 13.266000686645508Q153.90800370788574 11.916000686645507 152.10800370788576 11.916000686645507Q151.20800370788575 11.916000686645507 150.43400370788575 12.276000686645508Q149.66000370788575 12.636000686645508 149.10200370788573 13.284000686645507Q148.54400370788574 13.932000686645507 148.22000370788575 14.850000686645508Q147.89600370788574 15.768000686645507 147.89600370788574 16.848000686645506ZM183.24800370788574 14.184000686645508L183.24800370788574 26.280000686645508L177.48800370788575 26.280000686645508L177.48800370788575 15.660000686645509Q177.48800370788575 13.788000686645507 176.78600370788575 12.942000686645509Q176.08400370788576 12.096000686645509 174.93200370788574 12.096000686645509Q174.32000370788575 12.096000686645509 173.69000370788575 12.348000686645507Q173.06000370788576 12.600000686645508 172.50200370788576 13.050000686645507Q171.94400370788574 13.500000686645508 171.47600370788575 14.112000686645509Q171.00800370788573 14.724000686645509 170.75600370788572 15.444000686645508L170.75600370788572 26.280000686645508L164.99600370788573 26.280000686645508L164.99600370788573 7.380000686645509L170.18000370788576 7.380000686645509L170.18000370788576 10.548000686645508Q171.22400370788574 8.856000686645508 173.13200370788576 7.938000686645509Q175.04000370788575 7.020000686645506 177.52400370788575 7.020000686645506Q179.36000370788574 7.020000686645506 180.49400370788572 7.686000686645507Q181.62800370788574 8.352000686645507 182.24000370788576 9.414000686645508Q182.85200370788573 10.476000686645508 183.05000370788574 11.736000686645507Q183.24800370788574 12.996000686645507 183.24800370788574 14.184000686645508ZM198.11600370788574 20.70000068664551L199.19600370788572 25.27200068664551Q198.00800370788573 25.776000686645506 196.49600370788573 26.20800068664551Q194.98400370788573 26.640000686645507 193.40000370788573 26.640000686645507Q192.32000370788575 26.640000686645507 191.36600370788574 26.370000686645508Q190.41200370788573 26.100000686645508 189.69200370788576 25.506000686645507Q188.97200370788573 24.91200068664551 188.55800370788575 23.940000686645508Q188.14400370788576 22.968000686645507 188.14400370788576 21.600000686645508L188.14400370788576 11.736000686645507L185.73200370788572 11.736000686645507L185.73200370788572 7.380000686645509L188.14400370788576 7.380000686645509L188.14400370788576 1.3680006866455088L193.90400370788575 1.3680006866455088L193.90400370788575 7.380000686645509L197.75600370788572 7.380000686645509L197.75600370788572 11.736000686645507L193.90400370788575 11.736000686645507L193.90400370788575 19.620000686645508Q193.90400370788575 20.556000686645508 194.39000370788574 20.97000068664551Q194.87600370788573 21.384000686645507 195.59600370788576 21.384000686645507Q196.20800370788572 21.384000686645507 196.89200370788575 21.168000686645506Q197.57600370788575 20.95200068664551 198.11600370788574 20.70000068664551ZM210.46400370788575 26.640000686645507Q208.08800370788575 26.640000686645507 206.19800370788573 25.866000686645506Q204.30800370788575 25.09200068664551 202.99400370788572 23.76000068664551Q201.68000370788576 22.428000686645507 200.99600370788573 20.68200068664551Q200.31200370788574 18.936000686645507 200.31200370788574 17.028000686645505Q200.31200370788574 14.976000686645508 200.99600370788573 13.158000686645508Q201.68000370788576 11.340000686645508 202.97600370788575 9.972000686645508Q204.27200370788574 8.60400068664551 206.16200370788573 7.812000686645508Q208.05200370788575 7.020000686645506 210.46400370788575 7.020000686645506Q212.87600370788573 7.020000686645506 214.74800370788574 7.812000686645508Q216.62000370788576 8.60400068664551 217.91600370788575 9.954000686645507Q219.21200370788574 11.304000686645507 219.87800370788574 13.068000686645508Q220.54400370788574 14.832000686645507 220.54400370788574 16.77600068664551Q220.54400370788574 17.280000686645508 220.50800370788573 17.76600068664551Q220.47200370788573 18.25200068664551 220.40000370788573 18.61200068664551L206.43200370788574 18.61200068664551Q206.57600370788575 20.52000068664551 207.81800370788574 21.51000068664551Q209.06000370788576 22.500000686645507 210.64400370788576 22.500000686645507Q211.90400370788575 22.500000686645507 213.07400370788574 21.88800068664551Q214.24400370788572 21.27600068664551 214.64000370788574 20.232000686645506L219.53600370788575 21.600000686645508Q218.42000370788574 23.832000686645507 216.08000370788574 25.236000686645507Q213.74000370788576 26.640000686645507 210.46400370788575 26.640000686645507ZM206.32400370788574 15.048000686645508L214.46000370788573 15.048000686645508Q214.28000370788573 13.248000686645508 213.16400370788574 12.204000686645507Q212.04800370788575 11.160000686645509 210.39200370788575 11.160000686645509Q208.70000370788574 11.160000686645509 207.60200370788573 12.222000686645508Q206.50400370788574 13.284000686645507 206.32400370788574 15.048000686645508ZM241.38800370788573 14.184000686645508L241.38800370788573 26.280000686645508L235.62800370788574 26.280000686645508L235.62800370788574 15.660000686645509Q235.62800370788574 13.788000686645507 234.92600370788574 12.942000686645509Q234.22400370788574 12.096000686645509 233.07200370788576 12.096000686645509Q232.46000370788573 12.096000686645509 231.83000370788574 12.348000686645507Q231.20000370788574 12.600000686645508 230.64200370788575 13.050000686645507Q230.08400370788576 13.500000686645508 229.61600370788574 14.112000686645509Q229.14800370788575 14.724000686645509 228.89600370788574 15.444000686645508L228.89600370788574 26.280000686645508L223.13600370788575 26.280000686645508L223.13600370788575 7.380000686645509L228.32000370788575 7.380000686645509L228.32000370788575 10.548000686645508Q229.36400370788573 8.856000686645508 231.27200370788574 7.938000686645509Q233.18000370788576 7.020000686645506 235.66400370788574 7.020000686645506Q237.50000370788575 7.020000686645506 238.63400370788574 7.686000686645507Q239.76800370788575 8.352000686645507 240.38000370788575 9.414000686645508Q240.99200370788574 10.476000686645508 241.19000370788575 11.736000686645507Q241.38800370788573 12.996000686645507 241.38800370788573 14.184000686645508ZM253.01600370788574 26.640000686645507Q251.07200370788576 26.640000686645507 249.43400370788575 25.902000686645508Q247.79600370788575 25.164000686645508 246.60800370788573 23.832000686645507Q245.42000370788574 22.500000686645507 244.75400370788574 20.718000686645507Q244.08800370788575 18.936000686645507 244.08800370788575 16.812000686645508Q244.08800370788575 14.760000686645508 244.70000370788574 12.960000686645508Q245.31200370788574 11.160000686645509 246.42800370788575 9.846000686645507Q247.54400370788574 8.532000686645507 249.07400370788574 7.7760006866455065Q250.60400370788574 7.020000686645506 252.44000370788575 7.020000686645506Q254.38400370788574 7.020000686645506 256.0040037078858 7.956000686645506Q257.6240037078858 8.892000686645506 258.48800370788575 10.476000686645508L258.48800370788575 6.866455066756316e-7L264.24800370788574 6.866455066756316e-7L264.24800370788574 19.800000686645507Q264.24800370788574 20.664000686645508 264.57200370788576 21.006000686645507Q264.8960037078857 21.348000686645506 265.72400370788574 21.42000068664551L265.72400370788574 26.280000686645508Q264.8240037078857 26.460000686645508 264.15800370788577 26.51400068664551Q263.4920037078857 26.568000686645508 262.95200370788575 26.568000686645508Q259.92800370788575 26.49600068664551 259.49600370788573 24.15600068664551L259.38800370788573 23.148000686645506Q258.34400370788575 24.91200068664551 256.65200370788574 25.776000686645506Q254.96000370788573 26.640000686645507 253.01600370788574 26.640000686645507ZM254.56400370788575 21.780000686645508Q255.75200370788573 21.780000686645508 256.83200370788575 21.07800068664551Q257.91200370788573 20.376000686645508 258.52400370788575 19.152000686645508L258.52400370788575 15.192000686645509Q257.98400370788573 13.752000686645507 256.7780037078858 12.834000686645508Q255.57200370788576 11.916000686645507 254.27600370788574 11.916000686645507Q253.34000370788573 11.916000686645507 252.56600370788576 12.330000686645509Q251.79200370788575 12.744000686645508 251.21600370788573 13.428000686645507Q250.64000370788574 14.112000686645509 250.33400370788576 15.012000686645507Q250.02800370788574 15.912000686645507 250.02800370788574 16.92000068664551Q250.02800370788574 19.044000686645507 251.28800370788574 20.412000686645506Q252.54800370788575 21.780000686645508 254.56400370788575 21.780000686645508ZM280.41200370788573 26.280000686645508L274.1480037078858 26.280000686645508L283.97600370788575 0.7200006866455091L288.76400370788576 0.7200006866455091L298.55600370788574 26.280000686645508L292.2920037078858 26.280000686645508L290.31200370788576 20.556000686645508L282.35600370788575 20.556000686645508L280.41200370788573 26.280000686645508ZM289.3040037078857 16.488000686645506L286.35200370788573 6.984000686645508L283.2920037078858 16.488000686645506L289.3040037078857 16.488000686645506ZM312.38000370788575 7.128000686645507L312.38000370788575 12.312000686645508Q310.2920037078858 12.348000686645507 308.61800370788575 12.996000686645507Q306.9440037078857 13.644000686645509 306.15200370788574 14.940000686645508L306.15200370788574 26.280000686645508L300.39200370788575 26.280000686645508L300.39200370788575 7.380000686645509L305.6840037078857 7.380000686645509L305.6840037078857 11.196000686645508Q306.69200370788576 9.288000686645507 308.22200370788573 8.22600068664551Q309.7520037078857 7.164000686645508 311.48000370788577 7.092000686645509Q312.20000370788574 7.092000686645509 312.38000370788575 7.128000686645507ZM344.7080037078857 14.184000686645508L344.7080037078857 26.280000686645508L338.94800370788573 26.280000686645508L338.94800370788573 15.660000686645509Q338.94800370788573 13.788000686645507 338.28200370788574 12.942000686645509Q337.61600370788574 12.096000686645509 336.50000370788575 12.096000686645509Q335.3480037078857 12.096000686645509 334.25000370788575 13.032000686645508Q333.15200370788574 13.968000686645508 332.6480037078858 15.444000686645508L332.6480037078858 26.280000686645508L326.88800370788573 26.280000686645508L326.88800370788573 15.660000686645509Q326.88800370788573 13.788000686645507 326.22200370788573 12.942000686645509Q325.55600370788574 12.096000686645509 324.44000370788575 12.096000686645509Q323.28800370788576 12.096000686645509 322.19000370788575 13.014000686645508Q321.09200370788574 13.932000686645507 320.5880037078857 15.444000686645508L320.5880037078857 26.280000686645508L314.8280037078857 26.280000686645508L314.8280037078857 7.380000686645509L320.01200370788575 7.380000686645509L320.01200370788575 10.548000686645508Q321.05600370788574 8.820000686645507 322.85600370788575 7.920000686645508Q324.6560037078857 7.020000686645506 327.03200370788574 7.020000686645506Q328.1840037078857 7.020000686645506 329.08400370788576 7.3080006866455065Q329.98400370788573 7.596000686645507 330.61400370788573 8.100000686645508Q331.2440037078858 8.60400068664551 331.65800370788577 9.270000686645506Q332.07200370788576 9.936000686645507 332.2520037078857 10.692000686645509Q333.29600370788575 8.928000686645507 335.06000370788576 7.974000686645507Q336.8240037078857 7.020000686645506 339.09200370788574 7.020000686645506Q340.89200370788575 7.020000686645506 341.99000370788576 7.686000686645507Q343.0880037078857 8.352000686645507 343.70000370788574 9.414000686645508Q344.31200370788576 10.476000686645508 344.51000370788574 11.736000686645507Q344.7080037078857 12.996000686645507 344.7080037078857 14.184000686645508ZM348.38000370788575 34.056000686645504L348.38000370788575 29.12400068664551Q349.1720037078858 29.376000686645508 349.8380037078857 29.48400068664551Q350.5040037078858 29.59200068664551 351.00800370788573 29.59200068664551Q351.9440037078857 29.59200068664551 352.53800370788576 28.854000686645506Q353.1320037078857 28.116000686645506 353.5280037078858 26.280000686645508L346.36400370788573 7.380000686645509L352.2680037078858 7.380000686645509L356.6960037078858 21.348000686645506L360.47600370788575 7.380000686645509L365.8400037078857 7.380000686645509L358.60400370788574 29.340000686645507Q357.81200370788576 31.716000686645508 355.9220037078858 33.138000686645505Q354.03200370788574 34.56000068664551 351.54800370788575 34.59600068664551Q350.7560037078857 34.59600068664551 349.96400370788575 34.470000686645506Q349.1720037078858 34.34400068664551 348.38000370788575 34.056000686645504Z " fill="#000000"></path></g><g id="SvgjsG1015" transform="matrix(1,0,0,1,160,32.35383987426758)"><path id="color_2" d="M108.29869,103.56462H46.81309V60.69632h61.4856Z" fill="#b1b1b1"></path><path id="color_1" d="M96.03012,67.91581l5.038,3.12751-.00735-.00131.00735.00131L85.32233,96.36024l-4.99551-3.17711ZM67.15232,93.18313l4.99552,3.17711L87.89361,71.04332l-.00735-.00131.00735.00131-5.038-3.12751ZM58.41757,75.46a4.04172,4.04172,0,1,0,4.04172,4.04172A4.04171,4.04171,0,0,0,58.41757,75.46Zm0,12.79462a4.04172,4.04172,0,1,0,4.04172,4.04171A4.0417,4.0417,0,0,0,58.41757,88.25461Z" fill="#000000"></path></g></svg>