<?xml version="1.0" encoding="UTF-8"?>
<svg width="63px" height="43px" viewBox="0 0 63 43" version="1.1" xmlns="http://www.w3.org/2000/svg" xmlns:xlink="http://www.w3.org/1999/xlink">
    <!-- Generator: Sketch 57.1 (83088) - https://sketch.com -->
    <title>SvgjsG1015</title>
    <desc>Created with Sketch.</desc>
    <g id="Page-1-Copy" stroke="none" stroke-width="1" fill="none" fill-rule="evenodd">
        <g id="Website-Desktop-View" transform="translate(-364.000000, -49.000000)" fill-rule="nonzero">
            <g id="color_bgtransparent_h" transform="translate(364.000000, 49.000000)">
                <g id="SvgjsG1015" transform="translate(0.365963, 0.000000)">
                    <polygon id="color_2" fill="#50D673" points="62.07369 42.93415 0.58808 42.93415 0.58808 0.06585 62.07369 0.06585"></polygon>
                    <path d="M49.80512,7.28534 L54.84312,10.41285 L54.83577,10.41154 L54.84312,10.41285 L39.09733,35.72977 L34.10181,32.55266 L49.80512,7.28534 Z M20.92732,32.55266 L25.92284,35.72977 L41.66861,10.41285 L41.66126,10.41154 L41.66861,10.41285 L36.63061,7.28534 L20.92732,32.55266 Z M12.19257,14.82952 C9.96038968,14.82952 8.15085,16.6390597 8.15085,18.87124 C8.15085,21.1034203 9.96038968,22.91296 12.19257,22.91296 C14.4247503,22.91296 16.23429,21.1034203 16.23429,18.87124 C16.23429,17.7993084 15.8084707,16.7712796 15.0505005,16.0133095 C14.2925304,15.2553393 13.2645016,14.82952 12.19257,14.82952 L12.19257,14.82952 Z M12.19257,27.62414 C10.5578459,27.62414 9.08408754,28.6088745 8.45850666,30.119163 C7.83292578,31.6294515 8.17872002,33.3678681 9.33464592,34.5237912 C10.4905718,35.6797142 12.2289893,36.0255041 13.7392762,35.3999195 C15.2495631,34.7743349 16.23429,33.3005741 16.23429,31.66585 C16.23429,30.5939193 15.8084703,29.5658915 15.0504999,28.807923 C14.2925295,28.0499545 13.2645007,27.62414 12.19257,27.62414 L12.19257,27.62414 Z" id="color_1" fill="#2D4884"></path>
                </g>
            </g>
        </g>
    </g>
</svg>