<?xml version="1.0" encoding="UTF-8"?>
<svg width="257px" height="35px" viewBox="0 0 257 35" version="1.1" xmlns="http://www.w3.org/2000/svg" xmlns:xlink="http://www.w3.org/1999/xlink">
    <!-- Generator: Sketch 57.1 (83088) - https://sketch.com -->
    <title>SvgjsG1013</title>
    <desc>Created with Sketch.</desc>
    <g id="Page-1" stroke="none" stroke-width="1" fill="none" fill-rule="evenodd">
        <g id="color_bgcolor_v" transform="translate(0.000000, -62.000000)" fill="#2D4884" fill-rule="nonzero">
            <g id="SvgjsG1013" transform="translate(0.000000, 62.353840)">
                <path d="M6.06400371,26.2800007 L0.160003708,26.2800007 L0.160003708,0.720000687 L17.5120037,0.720000687 L17.5120037,5.90400069 L6.06400371,5.90400069 L6.06400371,11.4120007 L15.4960037,11.4120007 L15.4960037,16.2000007 L6.06400371,16.2000007 L6.06400371,26.2800007 Z M31.9840037,7.12800069 L31.9840037,12.3120007 C30.5920037,12.3360007 29.3380037,12.5640007 28.2220037,12.9960007 C27.1060037,13.4280007 26.2840037,14.0760007 25.7560037,14.9400007 L25.7560037,26.2800007 L19.9960037,26.2800007 L19.9960037,7.38000069 L25.2880037,7.38000069 L25.2880037,11.1960007 C25.9600037,9.92400069 26.8060037,8.93400069 27.8260037,8.22600069 C28.8460037,7.51800069 29.9320037,7.14000069 31.0840037,7.09200069 C31.5640037,7.09200069 31.8640037,7.10400069 31.9840037,7.12800069 Z M43.1080037,26.6400007 C41.5000037,26.6400007 40.0660037,26.3760007 38.8060037,25.8480007 C37.5460037,25.3200007 36.4840037,24.6060007 35.6200037,23.7060007 C34.7560037,22.8060007 34.1020037,21.7620007 33.6580037,20.5740007 C33.2140037,19.3860007 32.9920037,18.1440007 32.9920037,16.8480007 C32.9920037,15.5520007 33.2140037,14.3100007 33.6580037,13.1220007 C34.1020037,11.9340007 34.7560037,10.8900007 35.6200037,9.99000069 C36.4840037,9.09000069 37.5460037,8.37000069 38.8060037,7.83000069 C40.0660037,7.29000069 41.5000037,7.02000069 43.1080037,7.02000069 C44.7160037,7.02000069 46.1440037,7.29000069 47.3920037,7.83000069 C48.6400037,8.37000069 49.6960037,9.09000069 50.5600037,9.99000069 C51.4240037,10.8900007 52.0840037,11.9340007 52.5400037,13.1220007 C52.9960037,14.3100007 53.2240037,15.5520007 53.2240037,16.8480007 C53.2240037,18.1440007 53.0020037,19.3860007 52.5580037,20.5740007 C52.1140037,21.7620007 51.4600037,22.8060007 50.5960037,23.7060007 C49.7320037,24.6060007 48.6700037,25.3200007 47.4100037,25.8480007 C46.1500037,26.3760007 44.7160037,26.6400007 43.1080037,26.6400007 Z M38.8960037,16.8480007 C38.8960037,18.3360007 39.2920037,19.5300007 40.0840037,20.4300007 C40.8760037,21.3300007 41.8840037,21.7800007 43.1080037,21.7800007 C43.7080037,21.7800007 44.2600037,21.6600007 44.7640037,21.4200007 C45.2680037,21.1800007 45.7060037,20.8440007 46.0780037,20.4120007 C46.4500037,19.9800007 46.7440037,19.4580007 46.9600037,18.8460007 C47.1760037,18.2340007 47.2840037,17.5680007 47.2840037,16.8480007 C47.2840037,15.3600007 46.8880037,14.1660007 46.0960037,13.2660007 C45.3040037,12.3660007 44.3080037,11.9160007 43.1080037,11.9160007 C42.5080037,11.9160007 41.9500037,12.0360007 41.4340037,12.2760007 C40.9180037,12.5160007 40.4740037,12.8520007 40.1020037,13.2840007 C39.7300037,13.7160007 39.4360037,14.2380007 39.2200037,14.8500007 C39.0040037,15.4620007 38.8960037,16.1280007 38.8960037,16.8480007 Z M74.2480037,14.1840007 L74.2480037,26.2800007 L68.4880037,26.2800007 L68.4880037,15.6600007 C68.4880037,14.4120007 68.2540037,13.5060007 67.7860037,12.9420007 C67.3180037,12.3780007 66.7000037,12.0960007 65.9320037,12.0960007 C65.5240037,12.0960007 65.1100037,12.1800007 64.6900037,12.3480007 C64.2700037,12.5160007 63.8740037,12.7500007 63.5020037,13.0500007 C63.1300037,13.3500007 62.7880037,13.7040007 62.4760037,14.1120007 C62.1640037,14.5200007 61.9240037,14.9640007 61.7560037,15.4440007 L61.7560037,26.2800007 L55.9960037,26.2800007 L55.9960037,7.38000069 L61.1800037,7.38000069 L61.1800037,10.5480007 C61.8760037,9.42000069 62.8600037,8.55000069 64.1320037,7.93800069 C65.4040037,7.32600069 66.8680037,7.02000069 68.5240037,7.02000069 C69.7480037,7.02000069 70.7380037,7.24200069 71.4940037,7.68600069 C72.2500037,8.13000069 72.8320037,8.70600069 73.2400037,9.41400069 C73.6480037,10.1220007 73.9180037,10.8960007 74.0500037,11.7360007 C74.1820037,12.5760007 74.2480037,13.3920007 74.2480037,14.1840007 Z M89.1160037,20.7000007 L90.1960037,25.2720007 C89.4040037,25.6080007 88.5040037,25.9200007 87.4960037,26.2080007 C86.4880037,26.4960007 85.4560037,26.6400007 84.4000037,26.6400007 C83.6800037,26.6400007 83.0020037,26.5500007 82.3660037,26.3700007 C81.7300037,26.1900007 81.1720037,25.9020007 80.6920037,25.5060007 C80.2120037,25.1100007 79.8340037,24.5880007 79.5580037,23.9400007 C79.2820037,23.2920007 79.1440037,22.5120007 79.1440037,21.6000007 L79.1440037,11.7360007 L76.7320037,11.7360007 L76.7320037,7.38000069 L79.1440037,7.38000069 L79.1440037,1.36800069 L84.9040037,1.36800069 L84.9040037,7.38000069 L88.7560037,7.38000069 L88.7560037,11.7360007 L84.9040037,11.7360007 L84.9040037,19.6200007 C84.9040037,20.2440007 85.0660037,20.6940007 85.3900037,20.9700007 C85.7140037,21.2460007 86.1160037,21.3840007 86.5960037,21.3840007 C87.0040037,21.3840007 87.4360037,21.3120007 87.8920037,21.1680007 C88.3480037,21.0240007 88.7560037,20.8680007 89.1160037,20.7000007 Z M101.464004,26.6400007 C99.8800037,26.6400007 98.4580037,26.3820007 97.1980037,25.8660007 C95.9380037,25.3500007 94.8700037,24.6480007 93.9940037,23.7600007 C93.1180037,22.8720007 92.4520037,21.8460007 91.9960037,20.6820007 C91.5400037,19.5180007 91.3120037,18.3000007 91.3120037,17.0280007 C91.3120037,15.6600007 91.5400037,14.3700007 91.9960037,13.1580007 C92.4520037,11.9460007 93.1120037,10.8840007 93.9760037,9.97200069 C94.8400037,9.06000069 95.9020037,8.34000069 97.1620037,7.81200069 C98.4220037,7.28400069 99.8560037,7.02000069 101.464004,7.02000069 C103.072004,7.02000069 104.500004,7.28400069 105.748004,7.81200069 C106.996004,8.34000069 108.052004,9.05400069 108.916004,9.95400069 C109.780004,10.8540007 110.434004,11.8920007 110.878004,13.0680007 C111.322004,14.2440007 111.544004,15.4800007 111.544004,16.7760007 C111.544004,17.1120007 111.532004,17.4420007 111.508004,17.7660007 C111.484004,18.0900007 111.448004,18.3720007 111.400004,18.6120007 L97.4320037,18.6120007 C97.5280037,19.8840007 97.9900037,20.8500007 98.8180037,21.5100007 C99.6460037,22.1700007 100.588004,22.5000007 101.644004,22.5000007 C102.484004,22.5000007 103.294004,22.2960007 104.074004,21.8880007 C104.854004,21.4800007 105.376004,20.9280007 105.640004,20.2320007 L110.536004,21.6000007 C109.792004,23.0880007 108.640004,24.3000007 107.080004,25.2360007 C105.520004,26.1720007 103.648004,26.6400007 101.464004,26.6400007 Z M97.3240037,15.0480007 L105.460004,15.0480007 C105.340004,13.8480007 104.908004,12.9000007 104.164004,12.2040007 C103.420004,11.5080007 102.496004,11.1600007 101.392004,11.1600007 C100.264004,11.1600007 99.3340037,11.5140007 98.6020037,12.2220007 C97.8700037,12.9300007 97.4440037,13.8720007 97.3240037,15.0480007 Z M132.388004,14.1840007 L132.388004,26.2800007 L126.628004,26.2800007 L126.628004,15.6600007 C126.628004,14.4120007 126.394004,13.5060007 125.926004,12.9420007 C125.458004,12.3780007 124.840004,12.0960007 124.072004,12.0960007 C123.664004,12.0960007 123.250004,12.1800007 122.830004,12.3480007 C122.410004,12.5160007 122.014004,12.7500007 121.642004,13.0500007 C121.270004,13.3500007 120.928004,13.7040007 120.616004,14.1120007 C120.304004,14.5200007 120.064004,14.9640007 119.896004,15.4440007 L119.896004,26.2800007 L114.136004,26.2800007 L114.136004,7.38000069 L119.320004,7.38000069 L119.320004,10.5480007 C120.016004,9.42000069 121.000004,8.55000069 122.272004,7.93800069 C123.544004,7.32600069 125.008004,7.02000069 126.664004,7.02000069 C127.888004,7.02000069 128.878004,7.24200069 129.634004,7.68600069 C130.390004,8.13000069 130.972004,8.70600069 131.380004,9.41400069 C131.788004,10.1220007 132.058004,10.8960007 132.190004,11.7360007 C132.322004,12.5760007 132.388004,13.3920007 132.388004,14.1840007 Z M144.016004,26.6400007 C142.720004,26.6400007 141.526004,26.3940007 140.434004,25.9020007 C139.342004,25.4100007 138.400004,24.7200007 137.608004,23.8320007 C136.816004,22.9440007 136.198004,21.9060007 135.754004,20.7180007 C135.310004,19.5300007 135.088004,18.2280007 135.088004,16.8120007 C135.088004,15.4440007 135.292004,14.1600007 135.700004,12.9600007 C136.108004,11.7600007 136.684004,10.7220007 137.428004,9.84600069 C138.172004,8.97000069 139.054004,8.28000069 140.074004,7.77600069 C141.094004,7.27200069 142.216004,7.02000069 143.440004,7.02000069 C144.736004,7.02000069 145.924004,7.33200069 147.004004,7.95600069 C148.084004,8.58000069 148.912004,9.42000069 149.488004,10.4760007 L149.488004,6.86645507e-07 L155.248004,6.86645507e-07 L155.248004,19.8000007 C155.248004,20.3760007 155.356004,20.7780007 155.572004,21.0060007 C155.788004,21.2340007 156.172004,21.3720007 156.724004,21.4200007 L156.724004,26.2800007 C156.124004,26.4000007 155.602004,26.4780007 155.158004,26.5140007 C154.714004,26.5500007 154.312004,26.5680007 153.952004,26.5680007 C151.936004,26.5200007 150.784004,25.7160007 150.496004,24.1560007 L150.388004,23.1480007 C149.692004,24.3240007 148.780004,25.2000007 147.652004,25.7760007 C146.524004,26.3520007 145.312004,26.6400007 144.016004,26.6400007 Z M145.564004,21.7800007 C146.356004,21.7800007 147.112004,21.5460007 147.832004,21.0780007 C148.552004,20.6100007 149.116004,19.9680007 149.524004,19.1520007 L149.524004,15.1920007 C149.164004,14.2320007 148.582004,13.4460007 147.778004,12.8340007 C146.974004,12.2220007 146.140004,11.9160007 145.276004,11.9160007 C144.652004,11.9160007 144.082004,12.0540007 143.566004,12.3300007 C143.050004,12.6060007 142.600004,12.9720007 142.216004,13.4280007 C141.832004,13.8840007 141.538004,14.4120007 141.334004,15.0120007 C141.130004,15.6120007 141.028004,16.2480007 141.028004,16.9200007 C141.028004,18.3360007 141.448004,19.5000007 142.288004,20.4120007 C143.128004,21.3240007 144.220004,21.7800007 145.564004,21.7800007 Z M171.412004,26.2800007 L165.148004,26.2800007 L174.976004,0.720000687 L179.764004,0.720000687 L189.556004,26.2800007 L183.292004,26.2800007 L181.312004,20.5560007 L173.356004,20.5560007 L171.412004,26.2800007 Z M180.304004,16.4880007 L177.352004,6.98400069 L174.292004,16.4880007 L180.304004,16.4880007 Z M203.380004,7.12800069 L203.380004,12.3120007 C201.988004,12.3360007 200.734004,12.5640007 199.618004,12.9960007 C198.502004,13.4280007 197.680004,14.0760007 197.152004,14.9400007 L197.152004,26.2800007 L191.392004,26.2800007 L191.392004,7.38000069 L196.684004,7.38000069 L196.684004,11.1960007 C197.356004,9.92400069 198.202004,8.93400069 199.222004,8.22600069 C200.242004,7.51800069 201.328004,7.14000069 202.480004,7.09200069 C202.960004,7.09200069 203.260004,7.10400069 203.380004,7.12800069 Z M235.708004,14.1840007 L235.708004,26.2800007 L229.948004,26.2800007 L229.948004,15.6600007 C229.948004,14.4120007 229.726004,13.5060007 229.282004,12.9420007 C228.838004,12.3780007 228.244004,12.0960007 227.500004,12.0960007 C226.732004,12.0960007 225.982004,12.4080007 225.250004,13.0320007 C224.518004,13.6560007 223.984004,14.4600007 223.648004,15.4440007 L223.648004,26.2800007 L217.888004,26.2800007 L217.888004,15.6600007 C217.888004,14.4120007 217.666004,13.5060007 217.222004,12.9420007 C216.778004,12.3780007 216.184004,12.0960007 215.440004,12.0960007 C214.672004,12.0960007 213.922004,12.4020007 213.190004,13.0140007 C212.458004,13.6260007 211.924004,14.4360007 211.588004,15.4440007 L211.588004,26.2800007 L205.828004,26.2800007 L205.828004,7.38000069 L211.012004,7.38000069 L211.012004,10.5480007 C211.708004,9.39600069 212.656004,8.52000069 213.856004,7.92000069 C215.056004,7.32000069 216.448004,7.02000069 218.032004,7.02000069 C218.800004,7.02000069 219.484004,7.11600069 220.084004,7.30800069 C220.684004,7.50000069 221.194004,7.76400069 221.614004,8.10000069 C222.034004,8.43600069 222.382004,8.82600069 222.658004,9.27000069 C222.934004,9.71400069 223.132004,10.1880007 223.252004,10.6920007 C223.948004,9.51600069 224.884004,8.61000069 226.060004,7.97400069 C227.236004,7.33800069 228.580004,7.02000069 230.092004,7.02000069 C231.292004,7.02000069 232.258004,7.24200069 232.990004,7.68600069 C233.722004,8.13000069 234.292004,8.70600069 234.700004,9.41400069 C235.108004,10.1220007 235.378004,10.8960007 235.510004,11.7360007 C235.642004,12.5760007 235.708004,13.3920007 235.708004,14.1840007 Z M239.380004,34.0560007 L239.380004,29.1240007 C239.908004,29.2920007 240.394004,29.4120007 240.838004,29.4840007 C241.282004,29.5560007 241.672004,29.5920007 242.008004,29.5920007 C242.632004,29.5920007 243.142004,29.3460007 243.538004,28.8540007 C243.934004,28.3620007 244.264004,27.5040007 244.528004,26.2800007 L237.364004,7.38000069 L243.268004,7.38000069 L247.696004,21.3480007 L251.476004,7.38000069 L256.840004,7.38000069 L249.604004,29.3400007 C249.076004,30.9240007 248.182004,32.1900007 246.922004,33.1380007 C245.662004,34.0860007 244.204004,34.5720007 242.548004,34.5960007 C242.020004,34.5960007 241.492004,34.5540007 240.964004,34.4700007 C240.436004,34.3860007 239.908004,34.2480007 239.380004,34.0560007 Z" id="SvgjsPath1014"></path>
            </g>
        </g>
    </g>
</svg>