<?xml version="1.0" encoding="UTF-8"?>
<svg width="63px" height="43px" viewBox="0 0 63 43" version="1.1" xmlns="http://www.w3.org/2000/svg" xmlns:xlink="http://www.w3.org/1999/xlink">
    <!-- Generator: Sketch 57.1 (83088) - https://sketch.com -->
    <title>SvgjsG1015</title>
    <desc>Created with Sketch.</desc>
    <g id="Page-1" stroke="none" stroke-width="1" fill="none" fill-rule="evenodd">
        <g id="color_bgcolor_v" transform="translate(-97.000000, -1.000000)" fill-rule="nonzero">
            <g id="SvgjsG1015" transform="translate(97.000000, 0.353840)">
                <polygon id="color_2" fill="#DAF6E3" points="62.29869 43.56462 0.81309 43.56462 0.81309 0.69632 62.29869 0.69632"></polygon>
                <path d="M50.03012,7.91581 L55.06812,11.04332 L55.06077,11.04201 L55.06812,11.04332 L39.32233,36.36024 L34.32682,33.18313 L50.03012,7.91581 Z M21.15232,33.18313 L26.14784,36.36024 L41.89361,11.04332 L41.88626,11.04201 L41.89361,11.04332 L36.85561,7.91581 L21.15232,33.18313 Z M12.41757,15.46 C10.1853897,15.46 8.37585,17.2695397 8.37585,19.50172 C8.37585,21.7339003 10.1853897,23.54344 12.41757,23.54344 C14.6497503,23.54344 16.45929,21.7339003 16.45929,19.50172 C16.45929,18.4297884 16.0334707,17.4017596 15.2755005,16.6437895 C14.5175304,15.8858193 13.4895016,15.46 12.41757,15.46 Z M12.41757,28.25461 C10.7828459,28.25461 9.30908754,29.2393545 8.68350666,30.749643 C8.05792578,32.2599315 8.40372002,33.9983481 9.55964592,35.1542712 C10.7155718,36.3101942 12.4539893,36.6559841 13.9642762,36.0303995 C15.4745631,35.4048149 16.45929,33.9310541 16.45929,32.29633 C16.45929,31.2243976 16.0334742,30.1963672 15.2755035,29.4383965 C14.5175328,28.6804258 13.4895024,28.25461 12.41757,28.25461 L12.41757,28.25461 Z" id="color_1" fill="#2D4884"></path>
            </g>
        </g>
    </g>
</svg>